<mxfile host="app.diagrams.net" modified="2021-12-20T13:32:23.401Z" agent="5.0 (Windows)" etag="gCfSDiK93MlHujyuzhF4" version="15.9.4" type="github">
  <diagram id="_xX0cTNhc3mTQGcOit4X" name="Page-1">
    <mxGraphModel dx="1038" dy="1664" grid="1" gridSize="10" guides="1" tooltips="1" connect="1" arrows="1" fold="1" page="1" pageScale="1" pageWidth="827" pageHeight="1169" math="1" shadow="0">
      <root>
        <mxCell id="0" />
        <mxCell id="1" parent="0" />
        <mxCell id="LVfaKu3i-sCd7-mXp20R-103" value="" style="edgeStyle=orthogonalEdgeStyle;rounded=0;orthogonalLoop=1;jettySize=auto;html=1;" edge="1" parent="1" source="LVfaKu3i-sCd7-mXp20R-1" target="LVfaKu3i-sCd7-mXp20R-102">
          <mxGeometry relative="1" as="geometry" />
        </mxCell>
        <mxCell id="LVfaKu3i-sCd7-mXp20R-1" value="开始" style="ellipse;whiteSpace=wrap;html=1;" vertex="1" parent="1">
          <mxGeometry x="340" y="-1130" width="120" height="60" as="geometry" />
        </mxCell>
        <mxCell id="LVfaKu3i-sCd7-mXp20R-105" value="" style="edgeStyle=orthogonalEdgeStyle;rounded=0;orthogonalLoop=1;jettySize=auto;html=1;" edge="1" parent="1" source="LVfaKu3i-sCd7-mXp20R-102" target="LVfaKu3i-sCd7-mXp20R-104">
          <mxGeometry relative="1" as="geometry" />
        </mxCell>
        <mxCell id="LVfaKu3i-sCd7-mXp20R-102" value="完成与主程序的接口工作，保护现场，接收主程序的传入参数a" style="whiteSpace=wrap;html=1;" vertex="1" parent="1">
          <mxGeometry x="340" y="-1040" width="120" height="60" as="geometry" />
        </mxCell>
        <mxCell id="LVfaKu3i-sCd7-mXp20R-107" value="" style="edgeStyle=orthogonalEdgeStyle;rounded=0;orthogonalLoop=1;jettySize=auto;html=1;" edge="1" parent="1" source="LVfaKu3i-sCd7-mXp20R-104" target="LVfaKu3i-sCd7-mXp20R-106">
          <mxGeometry relative="1" as="geometry" />
        </mxCell>
        <mxCell id="LVfaKu3i-sCd7-mXp20R-104" value="确定约数查找范围为根号a" style="whiteSpace=wrap;html=1;" vertex="1" parent="1">
          <mxGeometry x="320" y="-950" width="160" height="60" as="geometry" />
        </mxCell>
        <mxCell id="LVfaKu3i-sCd7-mXp20R-113" value="" style="edgeStyle=orthogonalEdgeStyle;rounded=0;orthogonalLoop=1;jettySize=auto;html=1;" edge="1" parent="1" source="LVfaKu3i-sCd7-mXp20R-106" target="LVfaKu3i-sCd7-mXp20R-112">
          <mxGeometry relative="1" as="geometry" />
        </mxCell>
        <mxCell id="LVfaKu3i-sCd7-mXp20R-106" value="&lt;div&gt;cx=[根号a]+1&lt;/div&gt;&lt;div&gt;b=0&lt;br&gt;&lt;/div&gt;" style="whiteSpace=wrap;html=1;" vertex="1" parent="1">
          <mxGeometry x="340" y="-860" width="120" height="60" as="geometry" />
        </mxCell>
        <mxCell id="LVfaKu3i-sCd7-mXp20R-115" value="" style="edgeStyle=orthogonalEdgeStyle;rounded=0;orthogonalLoop=1;jettySize=auto;html=1;" edge="1" parent="1" source="LVfaKu3i-sCd7-mXp20R-112" target="LVfaKu3i-sCd7-mXp20R-114">
          <mxGeometry relative="1" as="geometry" />
        </mxCell>
        <mxCell id="LVfaKu3i-sCd7-mXp20R-112" value="a/cx==0？" style="rhombus;whiteSpace=wrap;html=1;" vertex="1" parent="1">
          <mxGeometry x="330" y="-770" width="140" height="80" as="geometry" />
        </mxCell>
        <mxCell id="LVfaKu3i-sCd7-mXp20R-117" value="" style="edgeStyle=orthogonalEdgeStyle;rounded=0;orthogonalLoop=1;jettySize=auto;html=1;" edge="1" parent="1" source="LVfaKu3i-sCd7-mXp20R-114" target="LVfaKu3i-sCd7-mXp20R-116">
          <mxGeometry relative="1" as="geometry" />
        </mxCell>
        <mxCell id="LVfaKu3i-sCd7-mXp20R-114" value="a是不是平方数" style="rhombus;whiteSpace=wrap;html=1;" vertex="1" parent="1">
          <mxGeometry x="330" y="-664.5" width="140" height="80" as="geometry" />
        </mxCell>
        <mxCell id="LVfaKu3i-sCd7-mXp20R-124" value="" style="edgeStyle=orthogonalEdgeStyle;rounded=0;orthogonalLoop=1;jettySize=auto;html=1;" edge="1" parent="1" source="LVfaKu3i-sCd7-mXp20R-116" target="LVfaKu3i-sCd7-mXp20R-123">
          <mxGeometry relative="1" as="geometry" />
        </mxCell>
        <mxCell id="LVfaKu3i-sCd7-mXp20R-116" value="b=b+cx+商" style="whiteSpace=wrap;html=1;" vertex="1" parent="1">
          <mxGeometry x="340" y="-560" width="120" height="60" as="geometry" />
        </mxCell>
        <mxCell id="LVfaKu3i-sCd7-mXp20R-118" value="no" style="text;html=1;strokeColor=none;fillColor=none;align=center;verticalAlign=middle;whiteSpace=wrap;rounded=0;" vertex="1" parent="1">
          <mxGeometry x="384" y="-590" width="60" height="30" as="geometry" />
        </mxCell>
        <mxCell id="LVfaKu3i-sCd7-mXp20R-119" value="b=b+cx" style="rounded=0;whiteSpace=wrap;html=1;" vertex="1" parent="1">
          <mxGeometry x="490" y="-560" width="80" height="60" as="geometry" />
        </mxCell>
        <mxCell id="LVfaKu3i-sCd7-mXp20R-120" value="" style="endArrow=classic;html=1;rounded=0;exitX=1;exitY=0.5;exitDx=0;exitDy=0;entryX=0.5;entryY=0;entryDx=0;entryDy=0;" edge="1" parent="1" source="LVfaKu3i-sCd7-mXp20R-114" target="LVfaKu3i-sCd7-mXp20R-119">
          <mxGeometry width="50" height="50" relative="1" as="geometry">
            <mxPoint x="560" y="-600" as="sourcePoint" />
            <mxPoint x="610" y="-650" as="targetPoint" />
            <Array as="points">
              <mxPoint x="530" y="-624" />
            </Array>
          </mxGeometry>
        </mxCell>
        <mxCell id="LVfaKu3i-sCd7-mXp20R-121" value="yes" style="text;html=1;strokeColor=none;fillColor=none;align=center;verticalAlign=middle;whiteSpace=wrap;rounded=0;" vertex="1" parent="1">
          <mxGeometry x="470" y="-650" width="60" height="30" as="geometry" />
        </mxCell>
        <mxCell id="LVfaKu3i-sCd7-mXp20R-122" value="yes" style="text;html=1;strokeColor=none;fillColor=none;align=center;verticalAlign=middle;whiteSpace=wrap;rounded=0;" vertex="1" parent="1">
          <mxGeometry x="400" y="-690" width="60" height="30" as="geometry" />
        </mxCell>
        <mxCell id="LVfaKu3i-sCd7-mXp20R-129" value="" style="edgeStyle=orthogonalEdgeStyle;rounded=0;orthogonalLoop=1;jettySize=auto;html=1;" edge="1" parent="1" source="LVfaKu3i-sCd7-mXp20R-123" target="LVfaKu3i-sCd7-mXp20R-128">
          <mxGeometry relative="1" as="geometry" />
        </mxCell>
        <mxCell id="LVfaKu3i-sCd7-mXp20R-123" value="cx=cx-1" style="rounded=0;whiteSpace=wrap;html=1;" vertex="1" parent="1">
          <mxGeometry x="340" y="-450" width="120" height="60" as="geometry" />
        </mxCell>
        <mxCell id="LVfaKu3i-sCd7-mXp20R-125" value="" style="endArrow=classic;html=1;rounded=0;exitX=0.5;exitY=1;exitDx=0;exitDy=0;entryX=1;entryY=0.5;entryDx=0;entryDy=0;" edge="1" parent="1" source="LVfaKu3i-sCd7-mXp20R-119" target="LVfaKu3i-sCd7-mXp20R-123">
          <mxGeometry width="50" height="50" relative="1" as="geometry">
            <mxPoint x="580" y="-410" as="sourcePoint" />
            <mxPoint x="630" y="-460" as="targetPoint" />
            <Array as="points">
              <mxPoint x="530" y="-420" />
            </Array>
          </mxGeometry>
        </mxCell>
        <mxCell id="LVfaKu3i-sCd7-mXp20R-126" value="" style="endArrow=classic;html=1;rounded=0;exitX=1;exitY=0.5;exitDx=0;exitDy=0;" edge="1" parent="1" source="LVfaKu3i-sCd7-mXp20R-112">
          <mxGeometry width="50" height="50" relative="1" as="geometry">
            <mxPoint x="650" y="-610" as="sourcePoint" />
            <mxPoint x="530" y="-420" as="targetPoint" />
            <Array as="points">
              <mxPoint x="580" y="-730" />
              <mxPoint x="580" y="-420" />
            </Array>
          </mxGeometry>
        </mxCell>
        <mxCell id="LVfaKu3i-sCd7-mXp20R-127" value="no" style="text;html=1;strokeColor=none;fillColor=none;align=center;verticalAlign=middle;whiteSpace=wrap;rounded=0;" vertex="1" parent="1">
          <mxGeometry x="490" y="-750" width="60" height="30" as="geometry" />
        </mxCell>
        <mxCell id="LVfaKu3i-sCd7-mXp20R-131" value="" style="edgeStyle=orthogonalEdgeStyle;rounded=0;orthogonalLoop=1;jettySize=auto;html=1;" edge="1" parent="1" source="LVfaKu3i-sCd7-mXp20R-128" target="LVfaKu3i-sCd7-mXp20R-130">
          <mxGeometry relative="1" as="geometry" />
        </mxCell>
        <mxCell id="LVfaKu3i-sCd7-mXp20R-128" value="cx=0？" style="rhombus;whiteSpace=wrap;html=1;rounded=0;" vertex="1" parent="1">
          <mxGeometry x="330" y="-360" width="140" height="80" as="geometry" />
        </mxCell>
        <mxCell id="LVfaKu3i-sCd7-mXp20R-133" value="" style="edgeStyle=orthogonalEdgeStyle;rounded=0;orthogonalLoop=1;jettySize=auto;html=1;" edge="1" parent="1" source="LVfaKu3i-sCd7-mXp20R-130" target="LVfaKu3i-sCd7-mXp20R-132">
          <mxGeometry relative="1" as="geometry" />
        </mxCell>
        <mxCell id="LVfaKu3i-sCd7-mXp20R-130" value="保存结果，恢复现场" style="whiteSpace=wrap;html=1;rounded=0;" vertex="1" parent="1">
          <mxGeometry x="340" y="-250" width="120" height="60" as="geometry" />
        </mxCell>
        <mxCell id="LVfaKu3i-sCd7-mXp20R-132" value="结束" style="ellipse;whiteSpace=wrap;html=1;rounded=0;" vertex="1" parent="1">
          <mxGeometry x="340" y="-160" width="120" height="60" as="geometry" />
        </mxCell>
        <mxCell id="LVfaKu3i-sCd7-mXp20R-134" value="yes" style="text;html=1;strokeColor=none;fillColor=none;align=center;verticalAlign=middle;whiteSpace=wrap;rounded=0;" vertex="1" parent="1">
          <mxGeometry x="400" y="-280" width="60" height="30" as="geometry" />
        </mxCell>
        <mxCell id="LVfaKu3i-sCd7-mXp20R-135" value="" style="endArrow=classic;html=1;rounded=0;exitX=0;exitY=0.5;exitDx=0;exitDy=0;" edge="1" parent="1" source="LVfaKu3i-sCd7-mXp20R-128">
          <mxGeometry width="50" height="50" relative="1" as="geometry">
            <mxPoint x="40" y="-280" as="sourcePoint" />
            <mxPoint x="400" y="-780" as="targetPoint" />
            <Array as="points">
              <mxPoint x="240" y="-320" />
              <mxPoint x="240" y="-780" />
            </Array>
          </mxGeometry>
        </mxCell>
        <mxCell id="LVfaKu3i-sCd7-mXp20R-136" value="no" style="text;html=1;strokeColor=none;fillColor=none;align=center;verticalAlign=middle;whiteSpace=wrap;rounded=0;" vertex="1" parent="1">
          <mxGeometry x="260" y="-350" width="60" height="30" as="geometry" />
        </mxCell>
      </root>
    </mxGraphModel>
  </diagram>
</mxfile>
